PathFileType	4	(X/Y/Z)	D:\TRACE\spot_10-12-23\spot_body_motion_2_5-platform.trc
DataRate	CameraRate	NumFrames	NumMarkers	Units	OrigDataRate	OrigDataStartFrame	OrigNumFrames
100.00	100.00	      78	5	mm	100.00	1	      7000
Frame#	Time	Left_Front			Right_Front			Left_Aft			Right_Aft			Post			
		X1	Y1	Z1	X2	Y2	Z2	X3	Y3	Z3	X4	Y4	Z4	X5	Y5	Z5	

1	0.000																
2	0.010																
3	0.020																
4	0.030																
5	0.040																
6	0.050																
7	0.060																
8	0.070																
9	0.080																
10	0.090																
11	0.100																
12	0.110																
13	0.120																
14	0.130																
15	0.140																
16	0.150																
17	0.160																
18	0.170																
19	0.180	-780.63080	6.38696	-641.50928	791.67303	11.16683	-634.90240	-697.73517	5.62197	496.30804	719.48639	10.07138	582.50842	1.96308	743.83154	-959.57574	
20	0.190	-780.70844	6.44176	-641.48779	791.68994	11.16335	-634.89178	-697.75427	5.59914	496.32578	719.45465	10.09498	582.50330	1.94132	743.87299	-959.53680	
21	0.200	-780.62518	6.36568	-641.51837	791.65631	11.14778	-634.90527	-697.80695	5.61519	496.26602	719.45007	10.05218	582.48370	1.91146	743.86884	-959.53912	
22	0.210	-780.65729	6.41172	-641.50812	791.68274	11.13300	-634.87469	-697.78436	5.60727	496.29056	719.43237	10.07870	582.48944	1.84168	743.88739	-959.59229	
23	0.220	-780.71710	6.45259	-641.50903	791.68756	11.13252	-634.92126	-697.74237	5.62090	496.25726	719.47284	10.09897	582.50592	1.89743	743.89221	-959.59131	
24	0.230	-780.61407	6.42354	-641.55524	791.68091	11.21192	-634.90546	-697.78033	5.62452	496.29636	719.44128	10.05862	582.50531	1.88475	743.89368	-959.57489	
25	0.240	-780.60870	6.35946	-641.52563	791.68781	11.17362	-634.91968	-697.76996	5.60786	496.29968	719.45966	10.05597	582.50427	1.92204	743.86072	-959.59729	
26	0.250	-780.52850	6.25824	-641.54370	791.67035	11.14607	-634.91479	-697.75842	5.60003	496.32333	719.46857	10.05979	582.49493	1.91956	743.84271	-959.58069	
27	0.260	-780.67603	6.38056	-641.50940	791.68323	11.12891	-634.89746	-697.77667	5.59373	496.27704	719.43616	10.05090	582.51270	1.90090	743.85480	-959.60107	
28	0.270	-780.62549	6.38730	-641.53400	791.71179	11.11566	-634.90332	-697.75470	5.61590	496.30032	719.43054	10.06571	582.48694	1.92101	743.86176	-959.59076	
29	0.280	-780.54529	6.28547	-641.50293	791.72620	11.15369	-634.88098	-697.72113	5.63533	496.28482	719.50629	10.06337	582.49811	1.89235	743.82916	-959.58325	
30	0.290	-780.65002	6.40670	-641.51660	791.69385	11.17401	-634.88324	-697.72540	5.61154	496.31375	719.45929	10.09688	582.50409	1.88825	743.87531	-959.57501	
31	0.300	-780.66522	6.41550	-641.51306	791.70996	11.12625	-634.92133	-697.78058	5.60742	496.31104	719.46393	10.04209	582.51550	1.89420	743.88080	-959.58911	
32	0.310	-780.67859	6.41095	-641.50232	791.63641	11.14316	-634.91046	-697.76263	5.61400	496.29950	719.42883	10.02873	582.53265	1.90123	743.88391	-959.60132	
33	0.320	-780.65570	6.38668	-641.50818	791.68030	11.16194	-634.92871	-697.75006	5.61649	496.28195	719.44818	10.02849	582.52722	1.90390	743.91718	-959.61578	
34	0.330	-780.63696	6.39245	-641.49347	791.68274	11.19190	-634.89728	-697.74805	5.60200	496.29282	719.48798	10.06585	582.50909	1.95642	743.87555	-959.58698	
35	0.340	-780.65698	6.43296	-641.45807	791.70099	11.15812	-634.91095	-697.76013	5.64696	496.26328	719.50891	10.09492	582.50824	1.95322	743.88361	-959.56946	
36	0.350	-780.61694	6.37536	-641.53052	791.70447	11.17017	-634.87079	-697.77679	5.62851	496.27725	719.45325	10.06723	582.49927	1.90031	743.85669	-959.54773	
37	0.360	-780.53839	6.30520	-641.56134	791.66718	11.12449	-634.91614	-697.79089	5.64129	496.25812	719.49603	10.03676	582.51611	1.93627	743.84583	-959.51874	
38	0.370	-780.59888	6.33152	-641.54980	791.65387	11.13033	-634.92310	-697.76776	5.64613	496.27597	719.46387	10.02790	582.51514	1.91682	743.84222	-959.56787	
39	0.380	-780.58484	6.36735	-641.53534	791.66656	11.16279	-634.89355	-697.91315	5.82858	496.17529	719.43152	10.05034	582.52448	1.88727	743.87592	-959.49774	
40	0.390	-780.58618	6.42602	-641.55481	791.71155	11.17646	-634.89758	-697.89484	5.79523	496.18329	719.47253	10.09273	582.51978	1.88586	743.92102	-959.57593	
41	0.400	-780.59766	6.41354	-641.54755	791.69910	11.15129	-634.92096	-697.87372	5.81896	496.20511	719.51910	10.09890	582.51233	1.90274	743.89911	-959.60785	
42	0.410	-780.65265	6.40980	-641.49109	791.70740	11.18185	-634.91028	-697.88458	5.78487	496.16907	719.45081	10.07300	582.51575	1.88404	743.88562	-959.62567	
43	0.420	-780.61420	6.39158	-641.51453	791.68848	11.17949	-634.89337	-697.84027	5.77883	496.18646	719.46375	10.06417	582.53467	1.87181	743.86444	-959.56891	
44	0.430	-780.70172	6.40193	-641.48206	791.65961	11.13667	-634.91327	-697.80432	5.67032	496.25174	719.42218	10.04922	582.52063	1.90256	743.87067	-959.59772	
45	0.440	-780.56842	6.31539	-641.52838	791.70624	11.18594	-634.90033	-697.80817	5.63786	496.30850	719.49341	10.08832	582.52069	1.89233	743.88098	-959.61346	
46	0.450	-780.63928	6.41413	-641.51147	791.68317	11.20157	-634.90033	-697.81989	5.66528	496.32654	719.49072	10.10696	582.50623	1.94856	743.90082	-959.57727	
47	0.460	-780.63483	6.38978	-641.55255	791.67816	11.20910	-634.93188	-697.80719	5.64280	496.36606	719.47650	10.09060	582.53760	1.91999	743.85590	-959.56720	
48	0.470	-780.66425	6.44795	-641.48376	791.69891	11.13012	-634.91211	-697.76306	5.62270	496.34534	719.46667	10.05380	582.49518	1.92033	743.86731	-959.61761	
49	0.480	-780.68280	6.39811	-641.48517	791.69373	11.15952	-634.89771	-697.82001	5.61086	496.33432	719.47131	10.05031	582.53375	1.93270	743.85229	-959.58704	
50	0.490	-780.68286	6.41894	-641.52838	791.67865	11.16130	-634.92682	-697.77185	5.63589	496.33331	719.47961	10.07294	582.54047	1.89272	743.88092	-959.51837	
51	0.500	-780.61145	6.39279	-641.52209	791.68652	11.15915	-634.89038	-697.76434	5.61670	496.33170	719.49414	10.06865	582.53741	1.95186	743.87372	-959.55060	
52	0.510	-780.55505	6.38232	-641.56354	791.68610	11.19444	-634.87793	-697.80048	5.62327	496.33173	719.49445	10.07620	582.51105	1.86082	743.90387	-959.56366	
53	0.520	-780.62598	6.42138	-641.51361	791.70270	11.15589	-634.87811	-697.78351	5.62755	496.35495	719.45660	10.06478	582.50275	1.95121	743.87122	-959.55219	
54	0.530	-780.63129	6.37074	-641.48700	791.64172	11.17056	-634.91968	-697.78479	5.60767	496.31537	719.47522	10.04990	582.53412	1.87585	743.87720	-959.56085	
55	0.540	-780.68408	6.41268	-641.48218	791.68481	11.16974	-634.86621	-697.78088	5.59202	496.34805	719.44501	10.05886	582.50439	1.90329	743.88202	-959.55133	
56	0.550	-780.61096	6.36963	-641.49750	791.68860	11.16039	-634.91510	-697.77155	5.60956	496.32416	719.46729	10.08021	582.49634	1.92502	743.87842	-959.56427	
57	0.560	-780.61658	6.39060	-641.52820	791.71576	11.18385	-634.90173	-697.76355	5.60542	496.35791	719.46600	10.07512	582.47729	1.88829	743.88446	-959.51453	
58	0.570	-780.62360	6.42187	-641.54761	791.73425	11.15581	-634.88763	-697.77466	5.62412	496.39935	719.45251	10.07452	582.51453	1.88951	743.89337	-959.57458	
59	0.580	-780.66229	6.39825	-641.45081	791.63806	11.13081	-634.92712	-697.73932	5.56882	496.33060	719.47760	10.08122	582.51001	1.93509	743.87677	-959.58777	
60	0.590	-780.54303	6.28010	-641.53333	791.64685	11.21216	-634.90399	-697.75287	5.56948	496.37436	719.45044	10.05350	582.53162	1.94020	743.86249	-959.62207	
61	0.600	-780.49579	6.25486	-641.52020	791.69965	11.17209	-634.88770	-697.77350	5.61441	496.37308	719.44489	10.07745	582.52411	1.94626	743.86157	-959.55383	
62	0.610	-780.63995	6.40392	-641.56720	791.69843	11.16909	-634.89868	-697.77350	5.59585	496.39005	719.50122	10.09311	582.52081	1.89778	743.90399	-959.61554	
63	0.620	-780.59161	6.39132	-641.53961	791.71344	11.17226	-634.86768	-697.78149	5.64859	496.34860	719.45099	10.08701	582.50635	1.89579	743.88269	-959.52368	
64	0.630	-780.62897	6.39779	-641.52570	791.62744	11.13578	-634.90631	-697.79834	5.61524	496.34882	719.48486	10.04921	582.53674	1.90659	743.86145	-959.54108	
65	0.640	-780.63385	6.40295	-641.50647	791.70587	11.12088	-634.89972	-697.74255	5.57172	496.36035	719.48492	10.05402	582.52252	1.95822	743.86523	-959.54694	
66	0.650	-780.64923	6.38784	-641.51819	791.70056	11.15565	-634.86725	-697.80005	5.58198	496.38312	719.44836	10.04633	582.51324	1.93280	743.86719	-959.51727	
67	0.660	-780.69714	6.42174	-641.50287	791.66052	11.14760	-634.91217	-697.78687	5.61147	496.35492	719.48730	10.06285	582.50720	1.93578	743.83777	-959.53131	
68	0.670	-780.60980	6.34381	-641.48822	791.68024	11.15711	-634.87305	-697.79712	5.62099	496.35229	719.46100	10.06895	582.51410	1.93861	743.88586	-959.51398	
69	0.680	-780.58496	6.37214	-641.53729	791.73798	11.15413	-634.88031	-697.80310	5.64161	496.39923	719.47815	10.06695	582.51935	1.90813	743.85327	-959.54852	
70	0.690	-780.49432	6.26758	-641.53406	791.66345	11.17469	-634.90857	-697.82056	5.64573	496.34845	719.43481	10.02635	582.52692	1.92881	743.89368	-959.48376	
71	0.700	-780.65259	6.35290	-641.48456	791.69189	11.21300	-634.88013	-697.79211	5.63587	496.38052	719.46094	10.04300	582.50684	1.91299	743.89508	-959.57751	
72	0.710	-780.65216	6.35297	-641.51428	791.63519	11.27750	-634.88824	-697.83289	5.64367	496.37866	719.45221	10.09469	582.52338	1.95267	743.88892	-959.54150	
73	0.720	-780.68677	6.38759	-641.50409	791.68439	11.14644	-634.90686	-697.84790	5.65057	496.38947	719.47473	10.03101	582.51300	1.85882	743.94348	-959.61853	
74	0.730	-780.55420	6.30228	-641.49194	791.73499	11.22178	-634.82556	-697.83002	5.64200	496.38925	719.45544	10.02971	582.50696	1.86726	743.92456	-959.60248	
75	0.740	-780.63483	6.40112	-641.49823	791.70770	11.25787	-634.85168	-697.82306	5.65942	496.37555	719.50098	10.03910	582.51202	1.91261	743.92291	-959.56586	
76	0.750	-780.64166	6.35953	-641.49799	791.67834	11.23728	-634.88153	-697.81543	5.62084	496.37912	719.45874	10.06779	582.51880	1.90783	743.89661	-959.47974	
77	0.760	-780.65778	6.34095	-641.49500	791.65906	11.12610	-634.92950	-697.82703	5.63760	496.34375	719.47260	10.07923	582.51538	1.90960	743.88837	-959.43738	
78	0.770	-780.53156	6.21301	-641.53961	791.69183	11.16704	-634.90863	-697.82971	5.65823	496.36371	719.45978	10.11142	582.51337	1.96184	743.86090	-959.49280	
